<svg xmlns="http://www.w3.org/2000/svg" viewBox="0 0 880 256" width="880" height="256">
  <title>EmotionScan - Pulse Face Lockup</title>
  <!-- Symbol: Concept B -->
  <g transform="translate(16, 0)">
    <path d="M128 20 C68.35 20 20 68.35 20 128 C20 187.65 68.35 236 128 236 C187.65 236 236 187.65 236 128 C236 68.35 187.65 20 128 20 Z M128 44 C174.39 44 212 81.61 212 128 C212 174.39 174.39 212 128 212 C81.61 212 44 174.39 44 128 C44 81.61 81.61 44 128 44 Z" fill="#000000" fill-rule="evenodd"/>
    <circle cx="96" cy="96" r="16" fill="#000000"/>
    <circle cx="160" cy="96" r="16" fill="#000000"/>
    <path d="M72 148 C90 184 166 184 184 148 C166 172 90 172 72 148 Z" fill="#000000"/>
    <path d="M128 114 L142 138 H114 Z" fill="#000000"/>
  </g>
  <!-- Wordmark -->
  <g transform="translate(300, 150)" fill="#000000">
    <text font-family="system-ui, -apple-system, sans-serif" font-weight="800" font-size="76" letter-spacing="-1">Emotion<tspan font-weight="400" fill="#666666">Scan</tspan></text>
  </g>
</svg>
